<?xml version="1.0" standalone="no"?>
<!DOCTYPE svg PUBLIC "-//W3C//DTD SVG 20010904//EN"
 "http://www.w3.org/TR/2001/REC-SVG-20010904/DTD/svg10.dtd">
<svg version="1.0" xmlns="http://www.w3.org/2000/svg"
 viewBox="0 0 2600.000000 2600.000000"
 preserveAspectRatio="xMidYMid meet">
<metadata>
Created by potrace 1.15, written by Peter Selinger 2001-2017
</metadata>
<g transform="translate(0.000000,2600.000000) scale(0.100000,-0.100000)"
fill="#000000" stroke="none">
<path d="M12590 22035 c-920 -112 -1723 -669 -2146 -1489 -151 -293 -240 -575
-290 -921 -27 -184 -25 -553 5 -745 94 -619 360 -1150 791 -1580 450 -450
1011 -720 1665 -801 146 -18 493 -15 645 5 261 36 514 104 747 202 593 248
1105 729 1398 1312 190 380 281 740 292 1167 13 500 -84 932 -308 1364 -269
520 -689 937 -1209 1200 -307 156 -607 246 -946 286 -156 18 -494 18 -644 0z"/>
<path d="M8320 16564 c-369 -17 -788 -52 -910 -75 -30 -6 -93 -29 -139 -51
-151 -72 -258 -205 -301 -374 -20 -76 -20 -127 -20 -4124 0 -3971 0 -4048 19
-4123 56 -217 207 -366 431 -423 73 -19 168 -16 355 10 296 41 851 46 1195 11
1407 -142 2526 -725 3355 -1748 216 -267 323 -317 655 -311 256 5 376 66 542
277 169 217 466 524 665 689 585 486 1269 817 2043 987 599 132 1304 168 1865
95 268 -35 354 -28 492 38 99 48 209 159 256 258 19 41 41 100 48 130 12 46
14 727 14 4115 0 3907 -1 4062 -18 4125 -54 189 -210 353 -387 405 -112 32
-519 69 -952 87 -468 18 -936 -6 -1399 -72 -1108 -159 -2086 -561 -2850 -1174
-85 -67 -200 -167 -257 -221 l-102 -97 -98 89 c-374 344 -744 595 -1217 828
-736 362 -1524 566 -2460 635 -146 11 -695 20 -825 14z"/>
<path d="M6044 13524 c-539 -90 -966 -529 -1051 -1078 -19 -127 -12 -334 16
-456 87 -382 327 -694 669 -868 160 -82 383 -142 530 -142 l52 0 0 1280 0
1280 -67 -1 c-38 -1 -104 -7 -149 -15z"/>
<path d="M19570 12260 l0 -1280 53 0 c122 1 293 38 435 95 336 136 608 424
727 769 87 256 89 559 5 817 -104 318 -346 598 -648 748 -144 72 -372 131
-508 131 l-64 0 0 -1280z"/>
</g>
</svg>
